<svg xmlns="http://www.w3.org/2000/svg" width="20" height="20" xmlns:v="https://vecta.io/nano"><path d="M6.434 8.7L8.7 6.43l6.407 6.45 1.133 3.36-3.36-1.13zm-2.97-2.97a1.54 1.54 0 0 1-.469-1.13 1.58 1.58 0 0 1 .469-1.14c.63-.613 1.635-.613 2.266 0l1.64 1.68-2.226 2.23zM19.617.36a1.2 1.2 0 0 1 .372.88v17.5a1.2 1.2 0 0 1-.372.88 1.23 1.23 0 0 1-.878.37H1.24a1.23 1.23 0 0 1-.879-.37 1.2 1.2 0 0 1-.371-.88V1.24A1.2 1.2 0 0 1 .36.36a1.19 1.19 0 0 1 .879-.37h17.5a1.19 1.19 0 0 1 .878.37zm-.878.88H1.24v17.5h17.5V1.24z" fill="#feb960" fill-rule="evenodd"/></svg>