<svg xmlns="http://www.w3.org/2000/svg" width="15" height="20" xmlns:v="https://vecta.io/nano"><path d="M-.02 2.5C-.03 1.822.233 1.178.7.7a2.5 2.5 0 0 1 4.27 1.78v11.25L2.48 20 .18 14.2l-.2-.47V2.5zm1.25 1.25h2.5V2.5c.004-.332-.13-.65-.37-.88a1.22 1.22 0 0 0-1.75 0 1.2 1.2 0 0 0-.38.88v1.25zm1.88 11.3l.27-.63v-.08l-.9-.43-.9.43v.08l.27.63.62 1.6zm.62-9.14V5h-2.5v8.12l1.25-.62 1.25.62V5.9zm10-.9v6.25a1.18 1.18 0 0 1 .88.37c.24.23.374.548.37.88v3.75c.004.332-.13.65-.37.88-.23.238-.55.372-.88.37.013.667-.247 1.3-.72 1.78a2.55 2.55 0 0 1-3.55 0c-.475-.47-.74-1.112-.73-1.78V5l.5-1.3 1.17-3h.04a.79.79 0 0 1 .26-.51c.142-.128.33-.196.52-.2a.75.75 0 0 1 .79.62l1.2 3.1zm-1.25 6.25V5h-2.5v12.5a1.28 1.28 0 0 0 1.25 1.25c.33.002.65-.132.88-.37.24-.23.374-.548.37-.88v-6.25zM11.23 2.1l-.66 1.64h1.33z" fill="#feb960" fill-rule="evenodd"/></svg>