<svg xmlns="http://www.w3.org/2000/svg" width="14.6" height="14.5" xmlns:v="https://vecta.io/nano"><path d="M.25 13.8c-.174-.183-.268-.428-.26-.68V.92C-.016.67.078.43.25.25a.9.9 0 0 1 .68-.26h8.43a.9.9 0 0 1 .68.26c.172.18.266.42.26.67v5c.557.27 1.028.688 1.36 1.2.738 1.135.686 2.6-.13 3.7l2.87 2.9c.103.074.165.193.165.32s-.06.246-.165.32a.42.42 0 0 1-.32.15c-.13-.013-.25-.065-.35-.15l-2.87-2.87a2.54 2.54 0 0 1-.56.35v1.26a.89.89 0 0 1-.94.94H.93c-.252.008-.497-.086-.68-.26zm11-4.9c.003-1.125-.8-2.094-1.892-2.316S7.14 6.94 6.708 7.98s-.07 2.237.865 2.862 2.18.503 2.976-.292a2.25 2.25 0 0 0 .69-1.66zm-2.8-5.62a.42.42 0 0 0-.47-.47H2.33a.47.47 0 1 0 0 .94h5.63a.42.42 0 0 0 .47-.47zm-6.57 2.8a.42.42 0 0 0 .47.47H6.6a3.05 3.05 0 0 1 1.58-.85.3.3 0 0 0-.23-.09H2.33a.42.42 0 0 0-.47.47zm0 2.8c-.02.13.024.26.117.353s.224.136.353.117h3.34a2.4 2.4 0 0 1-.06-.47c.006-.158.026-.315.06-.47H2.33a.42.42 0 0 0-.47.47z" fill="#feb960" fill-rule="evenodd"/></svg>