<svg xmlns="http://www.w3.org/2000/svg" width="13.161" height="15.03" xmlns:v="https://vecta.io/nano"><path d="M.266 14.74a.92.92 0 0 1-.278-.66V.95C-.005.435.41.018.926.01H12.2a.92.92 0 0 1 .68.28c.167.18.26.415.26.66v13.13c0 .245-.093.48-.26.66a.91.91 0 0 1-.68.27H.93c-.25.004-.49-.093-.665-.27zm5.48-11.78a.46.46 0 0 0-.132.34c-.003.123.045.243.132.33s.21.136.337.13h3.78a.45.45 0 0 0 .34-.13c.083-.1.13-.208.13-.33s-.045-.247-.13-.34a.45.45 0 0 0-.34-.13h-3.78c-.126-.006-.248.04-.337.13zm-2.813 2.8c-.088.09-.136.214-.13.34a.48.48 0 0 0 .131.34.49.49 0 0 0 .337.13H9.86c.126.002.247-.045.34-.13.083-.094.13-.215.13-.34s-.045-.247-.13-.34a.45.45 0 0 0-.34-.13H3.27c-.126-.006-.25.04-.338.13zm0 2.8c-.175.193-.175.487 0 .68.09.09.21.136.337.13H9.86a.45.45 0 0 0 .34-.13.47.47 0 0 0-.34-.81H3.27a.49.49 0 0 0-.338.13zm0 2.82a.44.44 0 0 0-.131.33c-.005.126.043.25.13.34s.21.136.337.13H9.86a.45.45 0 0 0 .34-.13c.085-.093.132-.214.13-.34a.47.47 0 0 0-.13-.33.46.46 0 0 0-.34-.14H3.27c-.127-.003-.25.048-.338.14z" fill="#feb960" fill-rule="evenodd"/></svg>