<svg xmlns="http://www.w3.org/2000/svg" width="15" height="15.03" xmlns:v="https://vecta.io/nano"><path d="M14.3 5.65a4.76 4.76 0 0 1 .69 2.8l-.02 1.22-.1 1.24c-.04.428-.127.85-.26 1.26-.136.376-.304.74-.5 1.1a2.79 2.79 0 0 1-.79.93 3.95 3.95 0 0 1-1.2.59c-.53.162-1.085.24-1.64.23a14.28 14.28 0 0 1-2.62-.19 4.19 4.19 0 0 1-1.44-.45c-.26-.162-.5-.34-.75-.53a2.94 2.94 0 0 0-.89-.45 4.91 4.91 0 0 0-1.54-.19l-.44-.06v-7.5a2.22 2.22 0 0 0 .34-.13c.288-.138.562-.302.82-.5a6.37 6.37 0 0 0 1-.85c.362-.4.653-.84.86-1.33.257-.58.416-1.198.47-1.83V.78a.8.8 0 0 1 .34-.52 1.3 1.3 0 0 1 .83-.25.84.84 0 0 1 .78.62c.175.487.25 1.004.22 1.52V4.7h4.24c.66.03 1.26.386 1.6.95zm-14.3 7.5V5.67a.9.9 0 0 1 .28-.66.87.87 0 0 1 .66-.28.9.9 0 0 1 .66.28.93.93 0 0 1 .27.66v7.47a.93.93 0 0 1-.27.66.94.94 0 0 1-.66.28c-.516-.01-.93-.424-.94-.94h0z" fill="#feb960" fill-rule="evenodd"/></svg>