<svg xmlns="http://www.w3.org/2000/svg" width="17.5" height="20" xmlns:v="https://vecta.io/nano"><path d="M.36 17.12a1.2 1.2 0 0 1-.371-.88v-15A1.2 1.2 0 0 1 .36.36a1.19 1.19 0 0 1 .879-.37h12.5a1.19 1.19 0 0 1 .878.37 1.2 1.2 0 0 1 .372.88V2.5h1.25a1.19 1.19 0 0 1 .878.37 1.2 1.2 0 0 1 .372.88v15a1.2 1.2 0 0 1-.372.88 1.23 1.23 0 0 1-.878.37H3.744a1.23 1.23 0 0 1-.879-.37 1.2 1.2 0 0 1-.371-.88V17.5h-1.25a1.23 1.23 0 0 1-.884-.37zM13.74 1.24H1.244v15h12.5v-15zm1.25 2.5v12.5a1.2 1.2 0 0 1-.372.88 1.23 1.23 0 0 1-.878.37h-10v1.25h12.5v-15h-1.25zm-9.375 0h6.25c.166-.004.327.057.45.17a.62.62 0 0 1 .176.45.59.59 0 0 1-.176.45.6.6 0 0 1-.449.18h-6.25a.6.6 0 0 1-.45-.18.59.59 0 0 1-.175-.45.62.62 0 0 1 .175-.45c.122-.113.284-.174.45-.17h0zm-2.95 4.82a.59.59 0 0 1-.175-.45.62.62 0 0 1 .175-.45c.122-.113.284-.174.45-.17h8.75c.166-.004.327.057.45.17a.62.62 0 0 1 .176.45.59.59 0 0 1-.176.45.6.6 0 0 1-.449.18h-8.75a.6.6 0 0 1-.45-.18zm0 2.5a.59.59 0 0 1-.175-.45.62.62 0 0 1 .175-.45c.122-.113.284-.174.45-.17h8.75c.166-.004.327.057.45.17a.62.62 0 0 1 .176.45.59.59 0 0 1-.176.45.6.6 0 0 1-.449.18h-8.75a.6.6 0 0 1-.45-.18zm0 2.5a.59.59 0 0 1-.175-.45.62.62 0 0 1 .175-.45c.122-.113.284-.174.45-.17h8.75c.166-.004.327.057.45.17a.62.62 0 0 1 .176.45.59.59 0 0 1-.176.45.6.6 0 0 1-.449.18h-8.75a.6.6 0 0 1-.45-.18z" fill="#feb960" fill-rule="evenodd"/></svg>